<svg xmlns="http://www.w3.org/2000/svg" width="220" height="76" viewBox="0 0 220 76"><defs><style>.cls-1{fill:#604c45;fill-rule:evenodd}</style></defs><path id="Swift_Design_Logo" data-name="Swift Design Logo" class="cls-1" d="M62.857 76H0V0h220v76H62.857zM59.714 3.167H3.1v69.666h56.614V3.167zm157.187 0H62.857v69.666H216.9V3.167zM75.362 20.348c0-2.132 1.645-4.285 4.936-4.285a7.912 7.912 0 0 1 4.573 1.615.548.548 0 0 1 .128.689l-1.09 1.658a.6.6 0 0 1-.727.28 6.668 6.668 0 0 0-3.056-1.292 1.242 1.242 0 0 0-1.346 1.1c0 .8.641 1.4 2.329 2.089 1.667.667 4.317 1.981 4.317 4.909 0 2.218-1.9 4.457-5.043 4.457a6.757 6.757 0 0 1-4.808-1.658.391.391 0 0 1-.107-.6l1-1.787a.548.548 0 0 1 .727-.129 6.357 6.357 0 0 0 3.034 1.184 1.343 1.343 0 0 0 1.475-1.292c0-.9-.748-1.593-2.2-2.175-1.834-.737-4.142-2.18-4.142-4.763zm.4 24.431h5.214a7.536 7.536 0 0 1 0 15.072h-5.211a.4.4 0 0 1-.385-.409V45.187a.4.4 0 0 1 .385-.409zm2.949 11.885h2.051a4.365 4.365 0 0 0 0-8.72h-2.048v8.72zM97.78 16.278h2.5a.44.44 0 0 1 .385.3l1.838 7.3h.085L105.9 16.3a.409.409 0 0 1 .364-.237h.384a.364.364 0 0 1 .364.237l3.312 7.579h.085l1.838-7.3a.44.44 0 0 1 .385-.3h2.5a.375.375 0 0 1 .385.517l-4.039 14.469a.412.412 0 0 1-.385.3h-.342a.434.434 0 0 1-.363-.237l-3.911-8.806h-.064l-3.889 8.806a.434.434 0 0 1-.363.237h-.342a.412.412 0 0 1-.385-.3L97.4 16.795a.375.375 0 0 1 .38-.517zm4.4 28.5h8.847a.407.407 0 0 1 .406.409v2.347a.407.407 0 0 1-.406.409h-5.919v2.67h4.872a.422.422 0 0 1 .406.409v2.347a.408.408 0 0 1-.406.409h-4.872v2.907h5.919a.407.407 0 0 1 .406.409v2.347a.407.407 0 0 1-.406.409h-8.847a.407.407 0 0 1-.406-.409V45.187a.407.407 0 0 1 .406-.409zm21.842 4.069c0-2.132 1.645-4.285 4.936-4.285a7.913 7.913 0 0 1 4.573 1.615.548.548 0 0 1 .128.689l-1.09 1.658a.6.6 0 0 1-.726.28 6.671 6.671 0 0 0-3.056-1.292 1.242 1.242 0 0 0-1.346 1.1c0 .8.641 1.4 2.329 2.089 1.667.667 4.317 1.981 4.317 4.909 0 2.218-1.9 4.457-5.043 4.457a6.758 6.758 0 0 1-4.809-1.658.392.392 0 0 1-.107-.6l1-1.787a.548.548 0 0 1 .726-.129 6.367 6.367 0 0 0 3.035 1.184 1.342 1.342 0 0 0 1.474-1.292c0-.9-.748-1.593-2.2-2.175-1.833-.736-4.141-2.179-4.141-4.762zm22.613-32.569h8.847a.407.407 0 0 1 .406.409v2.347a.407.407 0 0 1-.406.409h-5.919v3.1h4.872a.422.422 0 0 1 .406.409V25.3a.422.422 0 0 1-.406.409h-4.872v5.232a.423.423 0 0 1-.407.409h-2.521a.407.407 0 0 1-.406-.409V16.687a.407.407 0 0 1 .406-.409zm1.151 28.5h2.565a.422.422 0 0 1 .406.409v14.254a.422.422 0 0 1-.406.409h-2.565a.422.422 0 0 1-.406-.409V45.187a.422.422 0 0 1 .406-.409zm23.935-.194a8.219 8.219 0 0 1 5.215 2.024.38.38 0 0 1 .042.581L175.29 49a.449.449 0 0 1-.577.022 3.912 3.912 0 0 0-2.8-1.034 4.318 4.318 0 0 0 .021 8.634 5.019 5.019 0 0 0 1.9-.345v-1.25h-1.346a.39.39 0 0 1-.406-.387v-2.132a.4.4 0 0 1 .406-.409h4.295a.4.4 0 0 1 .385.409l.021 5.792a.531.531 0 0 1-.171.344 10.739 10.739 0 0 1-5.3 1.4 7.73 7.73 0 0 1 .003-15.46zm2.525-13.643a.422.422 0 0 1-.406.409h-2.564a.422.422 0 0 1-.406-.409v-11.5h-3.056a.407.407 0 0 1-.406-.409v-2.345a.407.407 0 0 1 .406-.409h9.486a.407.407 0 0 1 .406.409v2.347a.407.407 0 0 1-.406.409h-3.056v11.5zm16.945 13.622h.535l8.526 8.268h.021v-7.644a.407.407 0 0 1 .406-.409h2.565a.422.422 0 0 1 .406.409v14.49a.4.4 0 0 1-.406.388h-.344a.63.63 0 0 1-.278-.108l-8.441-8.548h-.021v8.031a.407.407 0 0 1-.406.409h-2.543a.422.422 0 0 1-.406-.409l-.02-14.49a.4.4 0 0 1 .406-.387zm-59.73-13.213H128.9a.422.422 0 0 1-.406-.409V16.687a.422.422 0 0 1 .406-.409h2.564a.422.422 0 0 1 .406.409v14.254a.422.422 0 0 1-.409.409zM20.444 16.911a5.31 5.31 0 0 1 4.212-.982c2.208.421 3.3 2.424 4.395 4.91s4.059 7.733 5.676 11.783a125.079 125.079 0 0 1 4.05 14.938c.955 1.181 1.875 2.3 2.664 3.289 1.659 2.087 1.445 1.616 2.2 2.148a38.048 38.048 0 0 1 4.028 4.235c.841 1.047 1.485 1.463 1.343 1.657-.32.437-4.936-2.94-9.276-6.441.136.816.24 1.542.3 2.145.431 4.074.743 8.674.244 11.722a.457.457 0 0 1-.427.184c.319-2.7-.013-8.8-1.271-14.987a130.107 130.107 0 0 1-3.361-2.849c.154.457.281.82.359 1.02.336.859.912 2.12.61 2.271-.328.165-2.289-2.854-2.625-2.516-.281.283.061 2.025.183 2.884s.176 1.851-.183 1.964c-.574.181-1.847-3.439-2.38-5.155a34.714 34.714 0 0 0-3.113-6.321 56.748 56.748 0 0 1-6.226-7.671c-1.679-2.863-2.93-6.628-2.747-8.96s1.666-4.972 1.038-7.61a3.381 3.381 0 0 0-1.282-.921 1.988 1.988 0 0 1 1.589-.737zm12.923 23.447c.14.318.306.664.505 1.04 1.219 2.3.61.593 2.38 2.946q.38.5.768 1c-1.651-5.627-2.76-7.7-3.942-9.718a19.972 19.972 0 0 1 .289 4.732z"/></svg>